<svg width="109px" height="29px" viewBox="0 0 109 29" version="1.1" xmlns="http://www.w3.org/2000/svg" xmlns:xlink="http://www.w3.org/1999/xlink"><defs><linearGradient x1="58.9170878%" y1="9.59026547%" x2="90.8103723%" y2="60.8514694%" id="linearGradient-1"><stop stop-color="#FF177B" offset="0%"></stop><stop stop-color="#FFEC73" offset="100%"></stop></linearGradient><linearGradient x1="37.1029741%" y1="-44.0352456%" x2="0%" y2="101.060094%" id="linearGradient-2"><stop stop-color="#064AA2" offset="0%"></stop><stop stop-color="#63FFD4" offset="100%"></stop></linearGradient><path d="M11.0717273,10.1158947 L0.398263571,0 C0.149251865,0.0578427538 0,0.244106096 0,0.557568999 L0,10.1158947 L0,19.9131785 C0,20.1791284 0.107210289,20.337362 0.238958142,20.3910948 L11.0717273,10.1158947 Z" id="path-3"></path><path d="M0.440827636,11.1784378 L6.61009582,7.78944482 C8.12929403,6.94763541 9.33496759,6.27954861 9.33496759,6.27954861 L13.8213548,3.86309064 L10.8345238,0.960808065 L0.00188112257,11.2372868 C0.122620931,11.2761183 0.335428415,11.254893 0.501452269,11.1729514" id="path-5"></path><linearGradient x1="78.6453125%" y1="50%" x2="2.49516972%" y2="100%" id="linearGradient-7"><stop stop-color="#FF4521" offset="0%"></stop><stop stop-color="#8A33DB" offset="100%"></stop></linearGradient><linearGradient x1="0%" y1="-24.1863374%" x2="64.2244373%" y2="100%" id="linearGradient-8"><stop stop-color="#00A3B5" offset="0%"></stop><stop stop-color="#D6FFA1" offset="100%"></stop></linearGradient><path d="M1.5678461,1.09135165 C1.36237291,0.981305283 1.15821949,0.949824968 0.993072995,0.994317422 L11.6753982,11.1249276 L14.6307277,8.32821024 L10.1759927,5.86061238 C10.1759927,5.86061238 5.97726048,3.5343202 3.44204132,2.12965899 L1.5678461,1.09135165 Z" id="path-9"></path></defs><g id="Symbols" stroke="none" stroke-width="1" fill="none" fill-rule="evenodd"><g id="Play-Store" transform="translate(-4.000000, -6.000000)"><g id="Group"><g transform="translate(3.000000, 5.000000)"><g id="icon" transform="translate(0.779163, 8.257836)"><path d="M10.5726037,5.86061238 C10.5726037,5.86061238 2.45556246,1.36339544 1.97883601,1.09917998 C1.50131634,0.834964516 1.02617633,0.995239361 1.02617633,1.54747348 L1.02617633,11.1480954 L1.02617633,20.9439035 C1.02617633,21.3572856 1.36567536,21.536603 1.7805305,21.3072989 C2.19459241,21.0779948 10.5726037,16.4355784 10.5726037,16.4355784 C10.5726037,16.4355784 11.7107419,15.8053356 12.2798111,15.4902143 C13.1956536,14.9830675 15.0273387,13.968774 15.0273387,13.968774 C15.0273387,13.968774 18.8070418,11.8740928 19.3099446,11.5963889 C19.8120541,11.3178915 19.7636676,10.936247 19.340087,10.7164641 C18.9157132,10.4974747 15.0273387,8.32821024 15.0273387,8.32821024 L10.5726037,5.86061238 Z" id="orange" fill="url(#linearGradient-1)"></path><g id="blue" transform="translate(1.000000, 1.000000)"><mask id="mask-4" fill="white"><use xlink:href="#path-3"></use></mask><use id="Clip-2" fill="url(#linearGradient-2)" xlink:href="#path-3"></use><path d="M14.0188777,7.3280497 L9.5583257,4.85881556 C9.54270432,4.89474627 1.42882868,0.389269362 0.95583257,0.159305428 C0.474954706,-0.140132123 0,0.0204370963 0,0.557568999 L0,10.1955474 C0,10.1919407 0,19.5908043 0,19.9928313 C0,20.419882 0.339366635,20.5995288 0.716874427,20.3910948 C1.1679604,20.1400782 9.54270432,15.4891352 9.5583257,15.4526265 L14.0188777,12.9833924 C13.995702,13.0178 17.773931,10.9192716 18.2404715,10.6734637 C18.7785514,10.3620487 18.7301837,9.97970318 18.3201243,9.79728384 C17.8825601,9.54012507 13.995702,7.36687633 14.0188777,7.3280497" id="Fill-1" mask="url(#mask-4)"></path></g><g id="red" transform="translate(1.237636, 10.156030)"><mask id="mask-6" fill="white"><use xlink:href="#path-5"></use></mask><g id="Clip-8"></g><path d="M9.32068959,-4.29721422 C9.30506821,-4.26128352 1.19119258,-8.76676043 0.718196464,-8.99672436 C0.2373186,-9.29616191 -0.237636106,-9.13559269 -0.237636106,-8.59846079 L-0.237636106,1.03951763 C-0.237636106,1.03591092 -0.237636106,10.4347745 -0.237636106,10.8368015 C-0.237636106,11.2638522 0.101730529,11.443499 0.479238322,11.235065 C0.930324298,10.9840484 9.30506821,6.33310537 9.32068959,6.29659676 L13.7812416,3.82736262 C13.7580659,3.8617702 17.5362949,1.76324179 18.0028354,1.51743391 C18.5409153,1.20601891 18.4925476,0.82367339 18.0824882,0.641254055 C17.644924,0.38409528 13.7580659,-1.78915346 13.7812416,-1.82798008 L9.32068959,-4.29721422 Z" id="Fill-7" fill="url(#linearGradient-7)" mask="url(#mask-6)"></path></g><g id="green" transform="translate(0.396611, 0.000000)"><mask id="mask-10" fill="white"><use xlink:href="#path-9"></use></mask><use id="Clip-5" fill="url(#linearGradient-8)" xlink:href="#path-9"></use><path d="M14.6222667,8.3280497 L10.1617147,5.85881556 C10.1460933,5.89474627 2.03221766,1.38926936 1.55922155,1.15930543 C1.07834368,0.859867877 0.603388975,1.0204371 0.603388975,1.557569 L0.603388975,11.1955474 C0.603388975,11.1919407 0.603388975,20.5908043 0.603388975,20.9928313 C0.603388975,21.419882 0.94275561,21.5995288 1.3202634,21.3910948 C1.77134938,21.1400782 10.1460933,16.4891352 10.1617147,16.4526265 L14.6222667,13.9833924 C14.599091,14.0178 18.37732,11.9192716 18.8438605,11.6734637 C19.3819404,11.3620487 19.3335727,10.9797032 18.9235132,10.7972838 C18.485949,10.5401251 14.599091,8.36687633 14.6222667,8.3280497" id="Fill-4" mask="url(#mask-10)"></path></g></g><g id="Google-play" transform="translate(24.639492, 11.010196)" fill="#FFFFFF"><path d="M52.9384101,11.778231 L52.0563601,12.6154262 C51.8525158,12.728115 51.6497645,12.8589439 51.4475597,12.9518435 C50.8349339,13.2316415 50.2119246,13.3020033 49.6583207,13.3020033 C49.0691943,13.3020033 48.1456103,13.2635242 47.2034453,12.5780465 C45.8945792,11.6507003 45.3223944,10.0565662 45.3223944,8.66747078 C45.3223944,5.79143307 47.6499353,4.38089928 49.5484743,4.38089928 C50.2119246,4.38089928 50.8934093,4.5480085 51.4475597,4.9003671 C52.3689578,5.51328416 52.6072315,6.30980148 52.7394844,6.73636977 L48.4041045,8.49816275 L46.9842991,8.60920243 C47.4439051,10.9674214 49.0298464,12.3389264 50.78247,12.3389264 C51.657962,12.3389264 52.3077498,12.0514326 52.9039807,11.7551435 C52.9039807,11.7551435 53.023664,11.6924776 52.9384101,11.778231 L52.9384101,11.778231 Z M50.2894975,7.04747588 C50.6374378,6.91798026 50.8184316,6.80619345 50.8184316,6.54609543 C50.8184316,5.80011216 49.9945046,4.93846828 49.0111949,4.93846828 C48.2828974,4.93846828 46.9154486,5.51953833 46.9154486,7.53723492 C46.9154486,7.85211955 46.9521877,8.18747998 46.9705572,8.52284042 L50.2894975,7.04747588 L50.2894975,7.04747588 Z" id="Fill-1"></path><path d="M43.8907261,11.677338 C43.8907261,12.3962387 44.0181883,12.5081042 44.622272,12.5645854 C44.9371145,12.6018739 45.2508677,12.6183247 45.5613525,12.6556132 L44.8815541,13.0630451 L41.6421621,13.0630451 C42.0670362,12.5081042 42.1400273,12.4527198 42.1400273,12.0831248 L42.1400273,11.6702093 L42.1329461,0.667903155 L40.7025369,0.667903155 L42.0795645,0 L44.7083362,0 C44.1385693,0.332306496 43.968075,0.53465154 43.8950838,1.18226535 L43.8907261,11.677338" id="Fill-2"></path><path d="M38.8648783,5.2887618 C39.2863368,5.63801761 40.1656898,6.37929524 40.1656898,7.78509099 C40.1656898,9.1552484 39.3994509,9.80112492 38.6266862,10.4124597 C38.3895818,10.6531556 38.1122348,10.9141379 38.1122348,11.3176737 C38.1122348,11.7272405 38.3895818,11.9492949 38.5891628,12.1148761 L39.2520763,12.6308097 C40.0580139,13.3167109 40.7927113,13.9455906 40.7927113,15.2230883 C40.7927113,16.9633363 39.122104,18.7183878 35.9652433,18.7183878 C33.3059757,18.7183878 32.0203911,17.4414384 32.0203911,16.0723776 C32.0203911,15.4062146 32.3494007,14.4626208 33.4348604,13.816196 C34.5725267,13.114943 36.1137055,13.0211867 36.9392205,12.9663585 C36.681451,12.6308097 36.3872457,12.2793608 36.3872457,11.7058575 C36.3872457,11.3922401 36.4807823,11.2052758 36.571056,10.9848663 C36.3703874,11.0040562 36.1680872,11.0237944 35.9842769,11.0237944 C34.0379541,11.0237944 32.9378112,9.55988072 32.9378112,8.11735005 C32.9378112,7.26641596 33.322834,6.32227388 34.1135447,5.63801761 C35.1598496,4.76953848 36.4073669,4.61985742 37.3987463,4.61985742 L41.1804532,4.61985742 L40.0047198,5.2887618 L38.8648783,5.2887618 L38.8648783,5.2887618 Z M37.5737868,13.481403 C37.4219299,13.4613087 37.3309253,13.4613087 37.1478198,13.4613087 C36.9800645,13.4613087 35.9806594,13.4981483 35.2065728,13.7627238 C34.7970524,13.9151059 33.6134454,14.365554 33.6134454,15.7035022 C33.6134454,17.0386596 34.8913462,18.0015134 36.8682276,18.0015134 C38.6444605,18.0015134 39.5873989,17.1346659 39.5873989,15.9675196 C39.5873989,15.0068984 38.9772301,14.5000745 37.5737868,13.481403 L37.5737868,13.481403 Z M38.0927328,9.91798031 C38.5150926,9.49218861 38.5519137,8.90406039 38.5519137,8.57009539 C38.5519137,7.24352739 37.7683822,5.17742642 36.2495116,5.17742642 C35.7757106,5.17742642 35.2623811,5.41737836 34.9710612,5.78851131 C34.6618722,6.17276236 34.5692779,6.67125022 34.5692779,7.15060751 C34.5692779,8.38589539 35.2829576,10.4345056 36.852728,10.4345056 C37.3108258,10.4345056 37.8035788,10.2098581 38.0927328,9.91798031 L38.0927328,9.91798031 Z" id="Fill-3"></path><path d="M27.4273658,13.3020033 C24.5040808,13.3020033 22.9399817,10.9959539 22.9399817,8.90797724 C22.9399817,6.46832388 24.9062777,4.38089928 27.7031268,4.38089928 C30.4067839,4.38089928 32.1000438,6.5251884 32.1000438,8.77658156 C32.1000438,10.9755269 30.4264032,13.3020033 27.4273658,13.3020033 L27.4273658,13.3020033 Z M29.7135247,11.7938106 C30.1597549,11.1958644 30.2680314,10.449539 30.2680314,9.72203776 C30.2680314,8.07657844 29.4936908,4.93846828 27.2051205,4.93846828 C26.5964756,4.93846828 25.983456,5.17930771 25.5416006,5.57240197 C24.8208513,6.22626719 24.6923414,7.04788954 24.6923414,7.85400959 C24.6923414,9.69989161 25.5935514,12.7444343 27.8301709,12.7444343 C28.5520138,12.7444343 29.2886217,12.3906494 29.7135247,11.7938106 L29.7135247,11.7938106 Z" id="Fill-4"></path><path d="M17.6297707,13.3020033 C14.7047226,13.3020033 13.1426978,10.9959539 13.1426978,8.90797724 C13.1426978,6.46832388 15.1103583,4.38089928 17.9072823,4.38089928 C20.6104302,4.38089928 22.30276,6.5251884 22.30276,8.77658156 C22.30276,10.9755269 20.6306029,13.3020033 17.6297707,13.3020033 L17.6297707,13.3020033 Z M19.9170631,11.7938106 C20.3602295,11.1958644 20.4707475,10.449539 20.4707475,9.72203776 C20.4707475,8.07657844 19.6938385,4.93846828 17.4063339,4.93846828 C16.7952019,4.93846828 16.1884469,5.17930771 15.7452805,5.57240197 C15.0230834,6.22626719 14.8950575,7.04788954 14.8950575,7.85400959 C14.8950575,9.69989161 15.8005395,12.7444343 18.0344265,12.7444343 C18.7549823,12.7444343 19.4908574,12.3906494 19.9170631,11.7938106 L19.9170631,11.7938106 Z" id="Fill-5"></path><path d="M11.9299841,12.7508391 L9.45389799,13.3215084 C8.45065623,13.480701 7.54976373,13.6206141 6.59578097,13.6206141 C1.81984663,13.6206141 0,10.0825741 0,7.3135055 C0,3.93190376 2.57843533,0.796527142 6.9942316,0.796527142 C7.92851076,0.796527142 8.82721396,0.934787776 9.64600812,1.15953016 C10.9437093,1.52638906 11.5506897,1.97862802 11.9299841,2.24358167 L10.4916211,3.61847627 L9.88518796,3.75508438 L10.3175726,3.06157786 C9.73193772,2.48595091 8.65535476,1.42338213 6.61220064,1.42338213 C3.88051507,1.42338213 1.81984663,3.51326598 1.81984663,6.56436421 C1.81984663,9.8413065 4.17278517,12.9238026 7.94657239,12.9238026 C9.05544736,12.9238026 9.62630451,12.699611 10.1446187,12.4902921 L10.1446187,9.6810123 L7.53006013,9.82257797 L8.91588018,9.07343668 L12.5851288,9.07343668 L12.1363246,9.50804879 C12.0153663,9.61160656 11.9989467,9.64686027 11.9650127,9.78567174 C11.946951,9.94431343 11.9299841,10.4488821 11.9299841,10.6262523 L11.9299841,12.7508391" id="Fill-6"></path><path d="M58.2820832,11.8634572 L58.2820832,16.5677645 L57.3499542,16.5677645 L57.3499542,4.5970949 L58.2820832,4.5970949 L58.2820832,5.96049567 C58.8893049,5.07929325 59.9989043,4.38089928 61.2876122,4.38089928 C63.5990955,4.38089928 65.1559202,6.13837814 65.1559202,8.92046007 C65.1559202,11.6839328 63.5990955,13.4780828 61.2876122,13.4780828 C60.0709845,13.4780828 58.9810434,12.8491998 58.2820832,11.8634572 L58.2820832,11.8634572 Z M64.2000876,8.9921836 C64.2000876,6.87324606 63.1055257,5.25707913 61.1646926,5.25707913 C59.9594139,5.25707913 58.806753,6.2128411 58.3057868,7.0463673 L58.3057868,10.9186413 C58.806753,11.7538268 59.9594139,12.7444343 61.1646926,12.7444343 C63.1055257,12.7444343 64.2000876,11.1144398 64.2000876,8.9921836 L64.2000876,8.9921836 Z" id="Fill-7"></path><polygon id="Fill-8" points="66.4303636 1.27444343 67.3861962 1.27444343 67.3861962 13.3020033 66.4303636 13.3020033"></polygon><path d="M77.7779498,15.7394636 C77.9772767,15.8286986 78.3174975,15.8834439 78.5332074,15.8834439 C79.1033367,15.8834439 79.500352,15.6496812 79.8569559,14.8241212 L80.5368515,13.2797545 L76.8648692,4.54020471 L77.9046452,4.54020471 L81.0545551,12.1136782 L84.1738834,4.54020471 L85.2284042,4.54020471 L80.7498308,15.1137241 C80.285099,16.2031569 79.5538699,16.72707 78.5495904,16.72707 C78.2481427,16.72707 77.8505813,16.6734195 77.6179423,16.6017031 L77.7779498,15.7394636" id="Fill-9"></path><path d="M75.1473575,13.290136 C75.0847479,12.9879694 75.0375161,12.7215784 75.0029161,12.499219 C74.9743574,12.27741 74.9578811,12.0506474 74.9578811,11.8200321 C74.6365951,12.292821 74.1813026,12.6863532 73.5996925,12.9962253 C73.0175332,13.308299 72.4644819,13.4613087 71.7060272,13.4613087 C70.7926962,13.4613087 70.0836701,13.2361973 69.5778505,12.7793698 C69.0736786,12.3230927 68.819945,11.7049997 68.819945,10.922889 C68.819945,10.1418791 69.1873644,9.50782459 69.9200064,9.02292698 C70.6526484,8.5358278 71.5994811,8.29365419 72.7714886,8.29365419 L74.9578811,8.29365419 L74.9578811,7.2110281 C74.9578811,6.58743106 74.7458873,6.09702951 74.3224488,5.74147463 C73.8973627,5.38536935 73.300924,5.20539033 72.5276407,5.20539033 C71.8208114,5.20539033 71.2474395,5.3699583 70.81082,5.69028793 C70.378045,6.0172223 70.1600098,6.42231269 70.1600098,6.91051267 L69.2005454,6.91051267 L69.180774,6.86372913 C69.1461739,6.20545724 69.4465901,5.62809335 70.0853177,5.12943588 C70.7212993,4.6313288 71.5544461,4.38089928 72.5798154,4.38089928 C73.6018894,4.38089928 74.4289949,4.62747604 75.0523447,5.11952878 C75.6751453,5.60662796 75.987644,6.3105826 75.987644,7.2308423 L75.987644,11.5294238 C75.987644,11.8381951 76.0024726,12.136509 76.0409171,12.4271173 C76.08046,12.718276 76.1436188,13.0088844 76.2276475,13.290136 L75.1473575,13.290136 L75.1473575,13.290136 Z M71.818814,12.6647816 C72.6144837,12.6647816 73.1862685,12.4855353 73.7706742,12.1309154 C74.3512387,11.7785083 74.7463299,11.3187749 74.953204,10.7622263 L74.953204,9.08040941 L72.758253,9.08040941 C71.9197817,9.08040941 71.2256285,9.26740089 70.6796344,9.64470322 C70.1325429,10.0208991 69.8554303,10.4762067 69.8554303,11.0056471 C69.8554303,11.5052131 70.0310264,11.9046446 70.3800236,12.207261 C70.7301183,12.5131967 71.2086176,12.6647816 71.818814,12.6647816 L71.818814,12.6647816 Z" id="Fill-10"></path></g><g id="Get-it-on" transform="translate(24.320881, 0.372217)" fill="#FFFFFF"><path d="M0.00338293381,3.81261756 C0.00338293381,2.09689283 1.37347113,0.993234132 3.07716509,0.993234132 C4.2189967,0.993234132 4.96576884,1.5001412 5.4310611,2.12088541 L4.59704667,2.57061867 C4.28099909,2.16172384 3.72736714,1.84369453 3.07716509,1.84369453 C1.91832398,1.84369453 1.05742355,2.66046322 1.05742355,3.81261756 C1.05742355,4.94792604 1.91832398,5.78154059 3.07716509,5.78154059 C3.67469254,5.78154059 4.2014385,5.52834229 4.46481148,5.29147937 L4.46481148,4.44969714 L2.70844292,4.44969714 L2.70844292,3.60791491 L5.4837357,3.60791491 L5.4837357,5.64268991 C4.91309424,6.23944154 4.08731021,6.63965819 3.07716509,6.63965819 C1.37347113,6.63965819 0.00338293381,5.52068509 0.00338293381,3.81261756" id="Fill-1"></path><polyline id="Fill-2" points="6.81230607 6.55662255 6.81230607 1.07626978 10.8810528 1.07626978 10.8810528 1.92319139 7.85410547 1.92319139 7.85410547 3.33575399 10.8187562 3.33575399 10.8187562 4.18216231 7.85410547 4.18216231 7.85410547 5.71021422 10.8810528 5.71021422 10.8810528 6.55662255 6.81230607 6.55662255"></polyline><polyline id="Fill-3" points="13.6480746 6.55662255 13.6480746 1.92319139 11.8774806 1.92319139 11.8774806 1.07626978 16.4444412 1.07626978 16.4444412 1.92319139 14.6738472 1.92319139 14.6738472 6.55662255 13.6480746 6.55662255"></polyline><polygon id="Fill-4" points="20.0980097 1.07626978 21.0944375 1.07626978 21.0944375 6.55662255 20.0980097 6.55662255"></polygon><polyline id="Fill-5" points="23.9450427 6.55662255 23.9450427 1.92319139 22.1739009 1.92319139 22.1739009 1.07626978 26.7408616 1.07626978 26.7408616 1.92319139 24.9708152 1.92319139 24.9708152 6.55662255 23.9450427 6.55662255"></polyline><path d="M30.1453231,3.81670177 C30.1453231,2.1879551 31.3985096,0.993234132 33.1764019,0.993234132 C34.9442999,0.993234132 36.2069254,2.1879551 36.2069254,3.81670177 C36.2069254,5.44493723 34.9442999,6.63965819 33.1764019,6.63965819 C31.3985096,6.63965819 30.1453231,5.44493723 30.1453231,3.81670177 L30.1453231,3.81670177 Z M35.127462,3.77492834 C35.127462,2.6573486 34.3596141,1.82359061 33.1764001,1.82359061 C31.9843603,1.82359061 31.2247866,2.6573486 31.2247866,3.77492834 C31.2247866,4.88390742 31.9843603,5.72626607 33.1764001,5.72626607 C34.3596141,5.72626607 35.127462,4.88390742 35.127462,3.77492834 L35.127462,3.77492834 Z" id="Fill-6"></path><polyline id="Fill-7" points="41.4442293 6.55662255 38.3942847 2.63768526 38.3942847 6.55662255 37.3694245 6.55662255 37.3694245 1.07626978 38.4211107 1.07626978 41.4091914 4.87253175 41.4091914 1.07626978 42.434599 1.07626978 42.434599 6.55662255 41.4442293 6.55662255"></polyline></g></g></g></g></g></svg>